<?xml version="1.0" encoding="UTF-8" standalone="no"?>
<!DOCTYPE svg PUBLIC "-//W3C//DTD SVG 1.1//EN"
 "http://www.w3.org/Graphics/SVG/1.1/DTD/svg11.dtd">
<!-- Generated by graphviz version 12.0.0 (20240704.0754)
 -->
<!-- Pages: 1 -->
<svg width="942pt" height="188pt"
 viewBox="0.00 0.00 941.87 188.00" xmlns="http://www.w3.org/2000/svg" xmlns:xlink="http://www.w3.org/1999/xlink">
<g id="graph0" class="graph" transform="scale(1 1) rotate(0) translate(4 184)">
<polygon fill="white" stroke="none" points="-4,4 -4,-184 937.87,-184 937.87,4 -4,4"/>
<!-- A -->
<g id="node1" class="node">
<title>A</title>
<ellipse fill="none" stroke="black" cx="645.4" cy="-162" rx="221.78" ry="18"/>
<text text-anchor="middle" x="645.4" y="-156.95" font-family="Times,serif" font-size="14.00">Device: [(3, &#39;Device C&#39;, &#39;Tablet&#39;, 1.8, 4, 64, 10.0, 500.0)]</text>
</g>
<!-- B -->
<g id="node2" class="node">
<title>B</title>
<ellipse fill="none" stroke="black" cx="545.4" cy="-90" rx="103.04" ry="18"/>
<text text-anchor="middle" x="545.4" y="-84.95" font-family="Times,serif" font-size="14.00">Recommended Software</text>
</g>
<!-- A&#45;&gt;B -->
<g id="edge1" class="edge">
<title>A&#45;&gt;B</title>
<path fill="none" stroke="black" d="M620.68,-143.7C607.99,-134.81 592.36,-123.87 578.63,-114.26"/>
<polygon fill="black" stroke="black" points="580.93,-111.6 570.73,-108.73 576.91,-117.33 580.93,-111.6"/>
</g>
<!-- C -->
<g id="node3" class="node">
<title>C</title>
<ellipse fill="none" stroke="black" cx="746.4" cy="-90" rx="80.01" ry="18"/>
<text text-anchor="middle" x="746.4" y="-84.95" font-family="Times,serif" font-size="14.00">Security Measures</text>
</g>
<!-- A&#45;&gt;C -->
<g id="edge2" class="edge">
<title>A&#45;&gt;C</title>
<path fill="none" stroke="black" d="M670.36,-143.7C683.27,-134.75 699.21,-123.71 713.14,-114.05"/>
<polygon fill="black" stroke="black" points="714.95,-117.06 721.17,-108.48 710.96,-111.3 714.95,-117.06"/>
</g>
<!-- S1 -->
<g id="node4" class="node">
<title>S1</title>
<ellipse fill="none" stroke="black" cx="53.4" cy="-18" rx="53.4" ry="18"/>
<text text-anchor="middle" x="53.4" y="-12.95" font-family="Times,serif" font-size="14.00">Norton 360</text>
</g>
<!-- B&#45;&gt;S1 -->
<g id="edge3" class="edge">
<title>B&#45;&gt;S1</title>
<path fill="none" stroke="black" d="M453.35,-81.55C365.87,-73.55 230.88,-58.82 115.4,-36 111.56,-35.24 107.61,-34.37 103.65,-33.44"/>
<polygon fill="black" stroke="black" points="104.57,-30.06 94.02,-31.03 102.87,-36.85 104.57,-30.06"/>
</g>
<!-- S2 -->
<g id="node5" class="node">
<title>S2</title>
<ellipse fill="none" stroke="black" cx="227.4" cy="-18" rx="103.04" ry="18"/>
<text text-anchor="middle" x="227.4" y="-12.95" font-family="Times,serif" font-size="14.00">McAfee Total Protection</text>
</g>
<!-- B&#45;&gt;S2 -->
<g id="edge4" class="edge">
<title>B&#45;&gt;S2</title>
<path fill="none" stroke="black" d="M482.95,-75.25C430.66,-63.74 355.95,-47.3 300.81,-35.16"/>
<polygon fill="black" stroke="black" points="301.7,-31.77 291.18,-33.04 300.19,-38.61 301.7,-31.77"/>
</g>
<!-- S3 -->
<g id="node6" class="node">
<title>S3</title>
<ellipse fill="none" stroke="black" cx="457.4" cy="-18" rx="108.67" ry="18"/>
<text text-anchor="middle" x="457.4" y="-12.95" font-family="Times,serif" font-size="14.00">Bitdefender Total Security</text>
</g>
<!-- B&#45;&gt;S3 -->
<g id="edge5" class="edge">
<title>B&#45;&gt;S3</title>
<path fill="none" stroke="black" d="M524.1,-72.05C513.15,-63.35 499.63,-52.59 487.62,-43.04"/>
<polygon fill="black" stroke="black" points="490,-40.46 479.99,-36.97 485.64,-45.94 490,-40.46"/>
</g>
<!-- S4 -->
<g id="node7" class="node">
<title>S4</title>
<ellipse fill="none" stroke="black" cx="633.4" cy="-18" rx="49.82" ry="18"/>
<text text-anchor="middle" x="633.4" y="-12.95" font-family="Times,serif" font-size="14.00">Kaspersky</text>
</g>
<!-- B&#45;&gt;S4 -->
<g id="edge6" class="edge">
<title>B&#45;&gt;S4</title>
<path fill="none" stroke="black" d="M566.7,-72.05C578.05,-63.03 592.17,-51.79 604.5,-41.99"/>
<polygon fill="black" stroke="black" points="606.67,-44.74 612.31,-35.77 602.31,-39.26 606.67,-44.74"/>
</g>
<!-- S5 -->
<g id="node8" class="node">
<title>S5</title>
<ellipse fill="none" stroke="black" cx="752.4" cy="-18" rx="50.84" ry="18"/>
<text text-anchor="middle" x="752.4" y="-12.95" font-family="Times,serif" font-size="14.00">Avast Free</text>
</g>
<!-- B&#45;&gt;S5 -->
<g id="edge7" class="edge">
<title>B&#45;&gt;S5</title>
<path fill="none" stroke="black" d="M591.34,-73.46C625.41,-61.94 671.68,-46.3 705.89,-34.73"/>
<polygon fill="black" stroke="black" points="706.75,-38.13 715.1,-31.61 704.51,-31.5 706.75,-38.13"/>
</g>
<!-- S6 -->
<g id="node9" class="node">
<title>S6</title>
<ellipse fill="none" stroke="black" cx="877.4" cy="-18" rx="56.47" ry="18"/>
<text text-anchor="middle" x="877.4" y="-12.95" font-family="Times,serif" font-size="14.00">Avira Prime</text>
</g>
<!-- B&#45;&gt;S6 -->
<g id="edge8" class="edge">
<title>B&#45;&gt;S6</title>
<path fill="none" stroke="black" d="M615.07,-76.35C669.09,-66.26 745.73,-51.32 812.4,-36 816.38,-35.08 820.5,-34.1 824.63,-33.08"/>
<polygon fill="black" stroke="black" points="825.22,-36.54 834.06,-30.71 823.51,-29.76 825.22,-36.54"/>
</g>
</g>
</svg>
