<?xml version="1.0" encoding="UTF-8" standalone="no"?>
<!DOCTYPE svg PUBLIC "-//W3C//DTD SVG 1.1//EN"
 "http://www.w3.org/Graphics/SVG/1.1/DTD/svg11.dtd">
<!-- Generated by graphviz version 11.0.0 (20240428.1522)
 -->
<!-- Pages: 1 -->
<svg width="946pt" height="188pt"
 viewBox="0.00 0.00 946.38 188.00" xmlns="http://www.w3.org/2000/svg" xmlns:xlink="http://www.w3.org/1999/xlink">
<g id="graph0" class="graph" transform="scale(1 1) rotate(0) translate(4 184)">
<polygon fill="white" stroke="none" points="-4,4 -4,-184 942.38,-184 942.38,4 -4,4"/>
<!-- A -->
<g id="node1" class="node">
<title>A</title>
<ellipse fill="none" stroke="black" cx="647.4" cy="-162" rx="76.94" ry="18"/>
<text text-anchor="middle" x="647.4" y="-156.95" font-family="Times,serif" font-size="14.00">Device: Device A</text>
</g>
<!-- B -->
<g id="node2" class="node">
<title>B</title>
<ellipse fill="none" stroke="black" cx="547.4" cy="-90" rx="103.04" ry="18"/>
<text text-anchor="middle" x="547.4" y="-84.95" font-family="Times,serif" font-size="14.00">Recommended Software</text>
</g>
<!-- A&#45;&gt;B -->
<g id="edge1" class="edge">
<title>A&#45;&gt;B</title>
<path fill="none" stroke="black" d="M623.7,-144.41C610.94,-135.48 594.97,-124.3 580.95,-114.49"/>
<polygon fill="black" stroke="black" points="583.06,-111.69 572.86,-108.82 579.05,-117.43 583.06,-111.69"/>
</g>
<!-- C -->
<g id="node3" class="node">
<title>C</title>
<ellipse fill="none" stroke="black" cx="748.4" cy="-90" rx="80.01" ry="18"/>
<text text-anchor="middle" x="748.4" y="-84.95" font-family="Times,serif" font-size="14.00">Security Measures</text>
</g>
<!-- A&#45;&gt;C -->
<g id="edge2" class="edge">
<title>A&#45;&gt;C</title>
<path fill="none" stroke="black" d="M671.33,-144.41C684.54,-135.26 701.14,-123.76 715.54,-113.77"/>
<polygon fill="black" stroke="black" points="717.17,-116.91 723.39,-108.33 713.18,-111.15 717.17,-116.91"/>
</g>
<!-- S1 -->
<g id="node4" class="node">
<title>S1</title>
<ellipse fill="none" stroke="black" cx="53.4" cy="-18" rx="53.4" ry="18"/>
<text text-anchor="middle" x="53.4" y="-12.95" font-family="Times,serif" font-size="14.00">Norton 360</text>
</g>
<!-- B&#45;&gt;S1 -->
<g id="edge3" class="edge">
<title>B&#45;&gt;S1</title>
<path fill="none" stroke="black" d="M455.35,-81.62C367.47,-73.65 231.6,-58.93 115.4,-36 111.56,-35.24 107.61,-34.37 103.65,-33.44"/>
<polygon fill="black" stroke="black" points="104.57,-30.06 94.02,-31.03 102.87,-36.85 104.57,-30.06"/>
</g>
<!-- S2 -->
<g id="node5" class="node">
<title>S2</title>
<ellipse fill="none" stroke="black" cx="228.4" cy="-18" rx="103.56" ry="18"/>
<text text-anchor="middle" x="228.4" y="-12.95" font-family="Times,serif" font-size="14.00">McAfee Total Protection</text>
</g>
<!-- B&#45;&gt;S2 -->
<g id="edge4" class="edge">
<title>B&#45;&gt;S2</title>
<path fill="none" stroke="black" d="M485.13,-75.34C432.72,-63.84 357.65,-47.36 302.21,-35.2"/>
<polygon fill="black" stroke="black" points="303.05,-31.8 292.53,-33.07 301.55,-38.63 303.05,-31.8"/>
</g>
<!-- S3 -->
<g id="node6" class="node">
<title>S3</title>
<ellipse fill="none" stroke="black" cx="459.4" cy="-18" rx="109.19" ry="18"/>
<text text-anchor="middle" x="459.4" y="-12.95" font-family="Times,serif" font-size="14.00">Bitdefender Total Security</text>
</g>
<!-- B&#45;&gt;S3 -->
<g id="edge5" class="edge">
<title>B&#45;&gt;S3</title>
<path fill="none" stroke="black" d="M526.1,-72.05C515.15,-63.35 501.63,-52.59 489.62,-43.04"/>
<polygon fill="black" stroke="black" points="492,-40.46 481.99,-36.97 487.64,-45.94 492,-40.46"/>
</g>
<!-- S4 -->
<g id="node7" class="node">
<title>S4</title>
<ellipse fill="none" stroke="black" cx="636.4" cy="-18" rx="49.82" ry="18"/>
<text text-anchor="middle" x="636.4" y="-12.95" font-family="Times,serif" font-size="14.00">Kaspersky</text>
</g>
<!-- B&#45;&gt;S4 -->
<g id="edge6" class="edge">
<title>B&#45;&gt;S4</title>
<path fill="none" stroke="black" d="M568.94,-72.05C580.53,-62.94 594.99,-51.57 607.54,-41.7"/>
<polygon fill="black" stroke="black" points="609.39,-44.7 615.08,-35.77 605.06,-39.2 609.39,-44.7"/>
</g>
<!-- S5 -->
<g id="node8" class="node">
<title>S5</title>
<ellipse fill="none" stroke="black" cx="755.4" cy="-18" rx="51.35" ry="18"/>
<text text-anchor="middle" x="755.4" y="-12.95" font-family="Times,serif" font-size="14.00">Avast Free</text>
</g>
<!-- B&#45;&gt;S5 -->
<g id="edge7" class="edge">
<title>B&#45;&gt;S5</title>
<path fill="none" stroke="black" d="M593.56,-73.46C627.8,-61.94 674.29,-46.3 708.66,-34.73"/>
<polygon fill="black" stroke="black" points="709.57,-38.12 717.93,-31.61 707.34,-31.48 709.57,-38.12"/>
</g>
<!-- S6 -->
<g id="node9" class="node">
<title>S6</title>
<ellipse fill="none" stroke="black" cx="881.4" cy="-18" rx="56.98" ry="18"/>
<text text-anchor="middle" x="881.4" y="-12.95" font-family="Times,serif" font-size="14.00">Avira Prime</text>
</g>
<!-- B&#45;&gt;S6 -->
<g id="edge8" class="edge">
<title>B&#45;&gt;S6</title>
<path fill="none" stroke="black" d="M617.04,-76.35C671.27,-66.23 748.34,-51.25 815.4,-36 819.44,-35.08 823.62,-34.09 827.81,-33.07"/>
<polygon fill="black" stroke="black" points="828.55,-36.5 837.41,-30.69 826.86,-29.7 828.55,-36.5"/>
</g>
</g>
</svg>
